<svg width="56" height="56" viewBox="0 0 56 56" fill="none" xmlns="http://www.w3.org/2000/svg">
<path fill-rule="evenodd" clip-rule="evenodd" d="M54.7047 52.0609L38.125 24.0484V2.96875C38.125 1.88594 37.2109 1 36.0859 1C34.9609 1 34.0469 1.87188 34.0469 2.96875V24.5688C34.0469 24.8219 34.1312 25.075 34.2297 25.3141C33.1609 23.7531 31.3328 22.7266 29.2516 22.7266C25.9469 22.7266 23.275 25.3 23.275 28.4922C23.275 30.8547 24.7516 32.9219 26.8469 33.7656H16.7219L21.6437 25.5391C21.8125 25.2437 21.9391 24.9062 21.9391 24.5688V20.2938C22.5016 20.7438 23.3453 21.0109 24.2031 21.0109C26.3547 21.0109 28.0703 19.3375 28.0703 17.2703C28.0703 15.2031 26.3547 13.5297 24.2031 13.5297C23.3453 13.5297 22.5016 13.7969 21.9391 14.2469V2.96875C21.9391 1.88594 21.025 1 19.9 1C18.775 1 17.8609 1.87188 17.8609 2.96875V24.0484L1.29531 52.0609C0.943745 52.6656 0.929683 53.4109 1.29531 54.0156C1.66093 54.6203 2.30781 55 3.03906 55H28H52.9609C53.6781 55 54.3391 54.6344 54.7047 54.0156C55.0703 53.425 55.0562 52.6656 54.7047 52.0609ZM31.6844 33.7656C33.7797 32.9219 35.2562 30.8406 35.2562 28.4922C35.2562 27.6906 35.0875 26.9172 34.7781 26.2281L39.1375 33.7656H31.6844Z" fill="white"/>
<path fill-rule="evenodd" clip-rule="evenodd" d="M29.2797 10.0844C30.9672 10.0844 32.3313 8.7625 32.3313 7.14532C32.3313 5.51407 30.9672 4.20625 29.2797 4.20625C27.5922 4.20625 26.2281 5.52813 26.2281 7.14532C26.2141 8.7625 27.5922 10.0844 29.2797 10.0844Z" fill="white"/>
</svg>
